{
  "accessors": [
    {
      "bufferView": 2,
      "componentType": 5126,
      "count": 84,
      "max": [
        0.6761600375175476,
        13.73877239227295,
        1.6089451313018799
      ],
      "min": [
        -0.32660627365112305,
        13.480642318725586,
        1.3321239948272705
      ],
      "type": "VEC3"
    },
    {
      "bufferView": 2,
      "byteOffset": 1008,
      "componentType": 5126,
      "count": 84,
      "max": [
        0.9138253331184387,
        0.5214110612869263,
        0.9695078134536743
      ],
      "min": [
        -0.9498311877250671,
        -0.5247436165809631,
        -0.9749272465705872
      ],
      "type": "VEC3"
    },
    {
      "bufferView": 3,
      "componentType": 5126,
      "count": 84,
      "max": [
        0.9898308515548706,
        0.9819713830947876,
        0.8002191781997681,
        1.0
      ],
      "min": [
        -0.9689383506774902,
        -0.9956650137901306,
        -0.8814326524734497,
        -1.0
      ],
      "type": "VEC4"
    },
    {
      "bufferView": 1,
      "componentType": 5126,
      "count": 84,
      "max": [
        0.8532235026359558,
        0.03304538503289223
      ],
      "min": [
        0.17532013356685638,
        0.001017562230117619
      ],
      "type": "VEC2"
    },
    {
      "bufferView": 1,
      "byteOffset": 672,
      "componentType": 5126,
      "count": 84,
      "max": [
        0.8532235026359558,
        0.03304538503289223
      ],
      "min": [
        0.17532013356685638,
        0.001017562230117619
      ],
      "type": "VEC2"
    },
    {
      "bufferView": 1,
      "byteOffset": 1344,
      "componentType": 5126,
      "count": 84,
      "max": [
        0.8532235026359558,
        0.03304538503289223
      ],
      "min": [
        0.17532013356685638,
        0.001017562230117619
      ],
      "type": "VEC2"
    },
    {
      "bufferView": 1,
      "byteOffset": 2016,
      "componentType": 5126,
      "count": 84,
      "max": [
        0.8532235026359558,
        0.03304538503289223
      ],
      "min": [
        0.17532013356685638,
        0.001017562230117619
      ],
      "type": "VEC2"
    },
    {
      "bufferView": 0,
      "componentType": 5125,
      "count": 312,
      "type": "SCALAR"
    },
    {
      "bufferView": 2,
      "byteOffset": 2016,
      "componentType": 5126,
      "count": 277,
      "max": [
        0.8317781686782837,
        13.81541919708252,
        1.2762479782104492
      ],
      "min": [
        -0.4064309597015381,
        12.52050495147705,
        -0.005437254905700684
      ],
      "type": "VEC3"
    },
    {
      "bufferView": 2,
      "byteOffset": 5340,
      "componentType": 5126,
      "count": 277,
      "max": [
        0.9985010027885437,
        0.9613721966743469,
        0.9892038106918335
      ],
      "min": [
        -0.9992296099662781,
        -0.9968471527099609,
        -0.9969253540039063
      ],
      "type": "VEC3"
    },
    {
      "bufferView": 3,
      "byteOffset": 1344,
      "componentType": 5126,
      "count": 277,
      "max": [
        0.9813389778137207,
        0.9550819396972656,
        0.9923952221870422,
        1.0
      ],
      "min": [
        -0.94048672914505,
        -0.9465397596359253,
        -0.9741685390472412,
        -1.0
      ],
      "type": "VEC4"
    },
    {
      "bufferView": 1,
      "byteOffset": 2688,
      "componentType": 5126,
      "count": 277,
      "max": [
        0.8415042757987976,
        0.11159245669841766
      ],
      "min": [
        0.44476020336151123,
        0.001046373974531889
      ],
      "type": "VEC2"
    },
    {
      "bufferView": 1,
      "byteOffset": 4904,
      "componentType": 5126,
      "count": 277,
      "max": [
        0.8415042757987976,
        0.11159245669841766
      ],
      "min": [
        0.44476020336151123,
        0.001046373974531889
      ],
      "type": "VEC2"
    },
    {
      "bufferView": 1,
      "byteOffset": 7120,
      "componentType": 5126,
      "count": 277,
      "max": [
        0.8415042757987976,
        0.11159245669841766
      ],
      "min": [
        0.44476020336151123,
        0.001046373974531889
      ],
      "type": "VEC2"
    },
    {
      "bufferView": 1,
      "byteOffset": 9336,
      "componentType": 5126,
      "count": 277,
      "max": [
        0.8415042757987976,
        0.11159245669841766
      ],
      "min": [
        0.44476020336151123,
        0.001046373974531889
      ],
      "type": "VEC2"
    },
    {
      "bufferView": 0,
      "byteOffset": 1248,
      "componentType": 5125,
      "count": 1296,
      "type": "SCALAR"
    },
    {
      "bufferView": 2,
      "byteOffset": 8664,
      "componentType": 5126,
      "count": 4420,
      "max": [
        0.7234756946563721,
        33.976905822753906,
        1.723473072052002
      ],
      "min": [
        -0.25751569867134094,
        33.58012390136719,
        1.3922362327575684
      ],
      "type": "VEC3"
    },
    {
      "bufferView": 2,
      "byteOffset": 61704,
      "componentType": 5126,
      "count": 4420,
      "max": [
        0.9998511672019958,
        0.9998649954795837,
        0.9996969103813171
      ],
      "min": [
        -0.9998443722724915,
        -0.9998583197593689,
        -0.9997828602790833
      ],
      "type": "VEC3"
    },
    {
      "bufferView": 1,
      "byteOffset": 11552,
      "componentType": 5126,
      "count": 4420,
      "max": [
        0.9463430047035217,
        0.9725689888000488
      ],
      "min": [
        0.01564599946141243,
        0.04183100163936615
      ],
      "type": "VEC2"
    },
    {
      "bufferView": 0,
      "byteOffset": 6432,
      "componentType": 5125,
      "count": 7680,
      "type": "SCALAR"
    },
    {
      "bufferView": 2,
      "byteOffset": 114744,
      "componentType": 5126,
      "count": 720,
      "max": [
        1.2603459358215332,
        12.368013381958008,
        3.892923593521118
      ],
      "min": [
        -1.3311889171600342,
        10.7472562789917,
        0.43334388732910156
      ],
      "type": "VEC3"
    },
    {
      "bufferView": 2,
      "byteOffset": 123384,
      "componentType": 5126,
      "count": 720,
      "max": [
        0.9898818135261536,
        0.9916260242462158,
        0.9891538023948669
      ],
      "min": [
        -0.9942652583122253,
        -0.9991172552108765,
        -0.9905253648757935
      ],
      "type": "VEC3"
    },
    {
      "bufferView": 3,
      "byteOffset": 5776,
      "componentType": 5126,
      "count": 720,
      "max": [
        0.9987427592277527,
        0.9961025714874268,
        0.9905304908752441,
        1.0
      ],
      "min": [
        -0.9991340637207031,
        -0.9980039000511169,
        -0.9837939739227295,
        1.0
      ],
      "type": "VEC4"
    },
    {
      "bufferView": 1,
      "byteOffset": 46912,
      "componentType": 5126,
      "count": 720,
      "max": [
        0.780317485332489,
        0.9937736988067627
      ],
      "min": [
        0.14183449745178223,
        0.42990759015083313
      ],
      "type": "VEC2"
    },
    {
      "bufferView": 1,
      "byteOffset": 52672,
      "componentType": 5126,
      "count": 720,
      "max": [
        0.780317485332489,
        0.9937736988067627
      ],
      "min": [
        0.14183449745178223,
        0.42990759015083313
      ],
      "type": "VEC2"
    },
    {
      "bufferView": 1,
      "byteOffset": 58432,
      "componentType": 5126,
      "count": 720,
      "max": [
        0.780317485332489,
        0.9937736988067627
      ],
      "min": [
        0.14183449745178223,
        0.42990759015083313
      ],
      "type": "VEC2"
    },
    {
      "bufferView": 1,
      "byteOffset": 64192,
      "componentType": 5126,
      "count": 720,
      "max": [
        0.780317485332489,
        0.9937736988067627
      ],
      "min": [
        0.14183449745178223,
        0.42990759015083313
      ],
      "type": "VEC2"
    },
    {
      "bufferView": 0,
      "byteOffset": 37152,
      "componentType": 5125,
      "count": 3234,
      "type": "SCALAR"
    },
    {
      "bufferView": 2,
      "byteOffset": 132024,
      "componentType": 5126,
      "count": 484,
      "max": [
        3.154777765274048,
        3.6207151412963867,
        3.430562973022461
      ],
      "min": [
        -2.1217055320739746,
        0.3564472496509552,
        -3.5321877002716064
      ],
      "type": "VEC3"
    },
    {
      "bufferView": 2,
      "byteOffset": 137832,
      "componentType": 5126,
      "count": 484,
      "max": [
        0.9948872923851013,
        0.9999815821647644,
        0.9921765923500061
      ],
      "min": [
        -0.9987646341323853,
        -0.9818894267082214,
        -0.9975588321685791
      ],
      "type": "VEC3"
    },
    {
      "bufferView": 3,
      "byteOffset": 17296,
      "componentType": 5126,
      "count": 484,
      "max": [
        0.9946138262748718,
        0.9015225768089294,
        0.9993709921836853,
        1.0
      ],
      "min": [
        -0.9989439845085144,
        -0.9225977659225464,
        -0.9995883107185364,
        1.0
      ],
      "type": "VEC4"
    },
    {
      "bufferView": 1,
      "byteOffset": 69952,
      "componentType": 5126,
      "count": 484,
      "max": [
        0.8249304890632629,
        0.8846276998519897
      ],
      "min": [
        0.36720719933509827,
        0.0010114312171936035
      ],
      "type": "VEC2"
    },
    {
      "bufferView": 1,
      "byteOffset": 73824,
      "componentType": 5126,
      "count": 484,
      "max": [
        0.8249304890632629,
        0.8846276998519897
      ],
      "min": [
        0.36720719933509827,
        0.0010114312171936035
      ],
      "type": "VEC2"
    },
    {
      "bufferView": 1,
      "byteOffset": 77696,
      "componentType": 5126,
      "count": 484,
      "max": [
        0.8249304890632629,
        0.8846276998519897
      ],
      "min": [
        0.36720719933509827,
        0.0010114312171936035
      ],
      "type": "VEC2"
    },
    {
      "bufferView": 1,
      "byteOffset": 81568,
      "componentType": 5126,
      "count": 484,
      "max": [
        0.8249304890632629,
        0.8846276998519897
      ],
      "min": [
        0.36720719933509827,
        0.0010114312171936035
      ],
      "type": "VEC2"
    },
    {
      "bufferView": 0,
      "byteOffset": 50088,
      "componentType": 5125,
      "count": 2586,
      "type": "SCALAR"
    },
    {
      "bufferView": 2,
      "byteOffset": 143640,
      "componentType": 5126,
      "count": 892,
      "max": [
        2.0813486576080322,
        12.641576766967773,
        1.4833072423934937
      ],
      "min": [
        -0.7530346512794495,
        8.687108993530273,
        -1.496970534324646
      ],
      "type": "VEC3"
    },
    {
      "bufferView": 2,
      "byteOffset": 154344,
      "componentType": 5126,
      "count": 892,
      "max": [
        0.9883692264556885,
        0.9908413290977478,
        0.9848672151565552
      ],
      "min": [
        -0.9660359621047974,
        -0.9943446516990662,
        -0.9471282362937927
      ],
      "type": "VEC3"
    },
    {
      "bufferView": 3,
      "byteOffset": 25040,
      "componentType": 5126,
      "count": 892,
      "max": [
        0.9847897887229919,
        0.9988572597503662,
        0.9988252520561218,
        1.0
      ],
      "min": [
        -0.9737500548362732,
        -0.9994412064552307,
        -0.9728690981864929,
        -1.0
      ],
      "type": "VEC4"
    },
    {
      "bufferView": 1,
      "byteOffset": 85440,
      "componentType": 5126,
      "count": 892,
      "max": [
        0.9985066652297974,
        0.4085876941680908
      ],
      "min": [
        0.0291481614112854,
        0.0009765625
      ],
      "type": "VEC2"
    },
    {
      "bufferView": 1,
      "byteOffset": 92576,
      "componentType": 5126,
      "count": 892,
      "max": [
        0.9985066652297974,
        0.4085876941680908
      ],
      "min": [
        0.0291481614112854,
        0.0009765625
      ],
      "type": "VEC2"
    },
    {
      "bufferView": 1,
      "byteOffset": 99712,
      "componentType": 5126,
      "count": 892,
      "max": [
        0.9985066652297974,
        0.4085876941680908
      ],
      "min": [
        0.0291481614112854,
        0.0009765625
      ],
      "type": "VEC2"
    },
    {
      "bufferView": 1,
      "byteOffset": 106848,
      "componentType": 5126,
      "count": 892,
      "max": [
        0.9985066652297974,
        0.4085876941680908
      ],
      "min": [
        0.0291481614112854,
        0.0009765625
      ],
      "type": "VEC2"
    },
    {
      "bufferView": 0,
      "byteOffset": 60432,
      "componentType": 5125,
      "count": 1308,
      "type": "SCALAR"
    },
    {
      "bufferView": 2,
      "byteOffset": 165048,
      "componentType": 5126,
      "count": 495,
      "max": [
        0.8423393964767456,
        14.749176025390625,
        1.671112060546875
      ],
      "min": [
        -0.5341858863830566,
        13.218113899230957,
        -0.11670130491256714
      ],
      "type": "VEC3"
    },
    {
      "bufferView": 2,
      "byteOffset": 170988,
      "componentType": 5126,
      "count": 495,
      "max": [
        0.9997814893722534,
        0.9873356819152832,
        0.9981235265731812
      ],
      "min": [
        -0.9965745806694031,
        -0.9949913620948792,
        -0.9991689324378967
      ],
      "type": "VEC3"
    },
    {
      "bufferView": 3,
      "byteOffset": 39312,
      "componentType": 5126,
      "count": 495,
      "max": [
        0.9997978210449219,
        0.8833943605422974,
        0.9999046325683594,
        1.0
      ],
      "min": [
        -0.9784829020500183,
        -0.8738926649093628,
        -0.9933396577835083,
        1.0
      ],
      "type": "VEC4"
    },
    {
      "bufferView": 1,
      "byteOffset": 113984,
      "componentType": 5126,
      "count": 495,
      "max": [
        0.7784678339958191,
        0.9054604172706604
      ],
      "min": [
        0.4711759090423584,
        0.760481059551239
      ],
      "type": "VEC2"
    },
    {
      "bufferView": 1,
      "byteOffset": 117944,
      "componentType": 5126,
      "count": 495,
      "max": [
        0.7784678339958191,
        0.9054604172706604
      ],
      "min": [
        0.4711759090423584,
        0.760481059551239
      ],
      "type": "VEC2"
    },
    {
      "bufferView": 1,
      "byteOffset": 121904,
      "componentType": 5126,
      "count": 495,
      "max": [
        0.7784678339958191,
        0.9054604172706604
      ],
      "min": [
        0.4711759090423584,
        0.760481059551239
      ],
      "type": "VEC2"
    },
    {
      "bufferView": 1,
      "byteOffset": 125864,
      "componentType": 5126,
      "count": 495,
      "max": [
        0.7784678339958191,
        0.9054604172706604
      ],
      "min": [
        0.4711759090423584,
        0.760481059551239
      ],
      "type": "VEC2"
    },
    {
      "bufferView": 0,
      "byteOffset": 65664,
      "componentType": 5125,
      "count": 2604,
      "type": "SCALAR"
    },
    {
      "bufferView": 2,
      "byteOffset": 176928,
      "componentType": 5126,
      "count": 60,
      "max": [
        0.34964752197265625,
        14.11297607421875,
        1.6770825386047363
      ],
      "min": [
        -0.03313782811164856,
        13.699250221252441,
        1.615931749343872
      ],
      "type": "VEC3"
    },
    {
      "bufferView": 2,
      "byteOffset": 177648,
      "componentType": 5126,
      "count": 60,
      "max": [
        0.3806786835193634,
        0.4497372508049011,
        0.9985259175300598
      ],
      "min": [
        -0.5192375779151917,
        -0.26652082800865173,
        -0.9994670748710632
      ],
      "type": "VEC3"
    },
    {
      "bufferView": 3,
      "byteOffset": 47232,
      "componentType": 5126,
      "count": 60,
      "max": [
        0.9979226589202881,
        0.9900088906288147,
        0.42489051818847656,
        1.0
      ],
      "min": [
        -0.39462336897850037,
        -0.9797701835632324,
        -0.3790174126625061,
        -1.0
      ],
      "type": "VEC4"
    },
    {
      "bufferView": 1,
      "byteOffset": 129824,
      "componentType": 5126,
      "count": 60,
      "max": [
        0.798394501209259,
        0.026063300669193268
      ],
      "min": [
        0.2598503530025482,
        0.0010551055893301964
      ],
      "type": "VEC2"
    },
    {
      "bufferView": 1,
      "byteOffset": 130304,
      "componentType": 5126,
      "count": 60,
      "max": [
        0.798394501209259,
        0.026063300669193268
      ],
      "min": [
        0.2598503530025482,
        0.0010551055893301964
      ],
      "type": "VEC2"
    },
    {
      "bufferView": 1,
      "byteOffset": 130784,
      "componentType": 5126,
      "count": 60,
      "max": [
        0.798394501209259,
        0.026063300669193268
      ],
      "min": [
        0.2598503530025482,
        0.0010551055893301964
      ],
      "type": "VEC2"
    },
    {
      "bufferView": 1,
      "byteOffset": 131264,
      "componentType": 5126,
      "count": 60,
      "max": [
        0.798394501209259,
        0.026063300669193268
      ],
      "min": [
        0.2598503530025482,
        0.0010551055893301964
      ],
      "type": "VEC2"
    },
    {
      "bufferView": 0,
      "byteOffset": 76080,
      "componentType": 5125,
      "count": 240,
      "type": "SCALAR"
    },
    {
      "bufferView": 2,
      "byteOffset": 178368,
      "componentType": 5126,
      "count": 3028,
      "max": [
        3.153153419494629,
        3.453679084777832,
        4.128124237060547
      ],
      "min": [
        -2.8736000061035156,
        -0.10033035278320313,
        -3.5395889282226563
      ],
      "type": "VEC3"
    },
    {
      "bufferView": 2,
      "byteOffset": 214704,
      "componentType": 5126,
      "count": 3028,
      "max": [
        0.998954176902771,
        0.9999972581863403,
        0.9987686276435852
      ],
      "min": [
        -0.9997761249542236,
        -0.9998923540115356,
        -0.9987736344337463
      ],
      "type": "VEC3"
    },
    {
      "bufferView": 3,
      "byteOffset": 48192,
      "componentType": 5126,
      "count": 3028,
      "max": [
        0.9997457265853882,
        0.9995981454849243,
        0.9997066855430603,
        1.0
      ],
      "min": [
        -0.9998904466629028,
        -0.9998487234115601,
        -0.998220682144165,
        -1.0
      ],
      "type": "VEC4"
    },
    {
      "bufferView": 1,
      "byteOffset": 131744,
      "componentType": 5126,
      "count": 3028,
      "max": [
        0.9968447685241699,
        0.9990234375
      ],
      "min": [
        0.0009765625,
        0.0009786486625671387
      ],
      "type": "VEC2"
    },
    {
      "bufferView": 1,
      "byteOffset": 155968,
      "componentType": 5126,
      "count": 3028,
      "max": [
        0.9968447685241699,
        0.9990234375
      ],
      "min": [
        0.0009765625,
        0.0009786486625671387
      ],
      "type": "VEC2"
    },
    {
      "bufferView": 1,
      "byteOffset": 180192,
      "componentType": 5126,
      "count": 3028,
      "max": [
        0.9968447685241699,
        0.9990234375
      ],
      "min": [
        0.0009765625,
        0.0009786486625671387
      ],
      "type": "VEC2"
    },
    {
      "bufferView": 1,
      "byteOffset": 204416,
      "componentType": 5126,
      "count": 3028,
      "max": [
        0.9968447685241699,
        0.9990234375
      ],
      "min": [
        0.0009765625,
        0.0009786486625671387
      ],
      "type": "VEC2"
    },
    {
      "bufferView": 0,
      "byteOffset": 77040,
      "componentType": 5125,
      "count": 14268,
      "type": "SCALAR"
    },
    {
      "bufferView": 2,
      "byteOffset": 251040,
      "componentType": 5126,
      "count": 1207,
      "max": [
        2.3778300285339355,
        13.049010276794434,
        3.4311318397521973
      ],
      "min": [
        -1.5755689144134521,
        8.581605911254883,
        -1.897719144821167
      ],
      "type": "VEC3"
    },
    {
      "bufferView": 2,
      "byteOffset": 265524,
      "componentType": 5126,
      "count": 1207,
      "max": [
        0.9980711340904236,
        0.9980885982513428,
        0.9977855682373047
      ],
      "min": [
        -0.9997173547744751,
        -0.9998977184295654,
        -0.9991899132728577
      ],
      "type": "VEC3"
    },
    {
      "bufferView": 3,
      "byteOffset": 96640,
      "componentType": 5126,
      "count": 1207,
      "max": [
        0.9993438720703125,
        0.996173083782196,
        0.9996445775032043,
        1.0
      ],
      "min": [
        -0.9973434805870056,
        -0.9997321963310242,
        -0.992659330368042,
        -1.0
      ],
      "type": "VEC4"
    },
    {
      "bufferView": 1,
      "byteOffset": 228640,
      "componentType": 5126,
      "count": 1207,
      "max": [
        0.9839540719985962,
        0.9282617568969727
      ],
      "min": [
        0.0009765550494194031,
        0.0009881098521873355
      ],
      "type": "VEC2"
    },
    {
      "bufferView": 1,
      "byteOffset": 238296,
      "componentType": 5126,
      "count": 1207,
      "max": [
        0.9839540719985962,
        0.9282617568969727
      ],
      "min": [
        0.0009765550494194031,
        0.0009881098521873355
      ],
      "type": "VEC2"
    },
    {
      "bufferView": 1,
      "byteOffset": 247952,
      "componentType": 5126,
      "count": 1207,
      "max": [
        0.9839540719985962,
        0.9282617568969727
      ],
      "min": [
        0.0009765550494194031,
        0.0009881098521873355
      ],
      "type": "VEC2"
    },
    {
      "bufferView": 1,
      "byteOffset": 257608,
      "componentType": 5126,
      "count": 1207,
      "max": [
        0.9839540719985962,
        0.9282617568969727
      ],
      "min": [
        0.0009765550494194031,
        0.0009881098521873355
      ],
      "type": "VEC2"
    },
    {
      "bufferView": 0,
      "byteOffset": 134112,
      "componentType": 5125,
      "count": 5142,
      "type": "SCALAR"
    },
    {
      "bufferView": 2,
      "byteOffset": 280008,
      "componentType": 5126,
      "count": 5038,
      "max": [
        3.1147913932800293,
        14.737706184387207,
        4.02077579498291
      ],
      "min": [
        -2.7785046100616455,
        -0.046256065368652344,
        -3.4844141006469727
      ],
      "type": "VEC3"
    },
    {
      "bufferView": 2,
      "byteOffset": 340464,
      "componentType": 5126,
      "count": 5038,
      "max": [
        0.9997774362564087,
        0.9971720576286316,
        0.9999363422393799
      ],
      "min": [
        -0.998690128326416,
        -0.9999600052833557,
        -0.9998100399971008
      ],
      "type": "VEC3"
    },
    {
      "bufferView": 3,
      "byteOffset": 115952,
      "componentType": 5126,
      "count": 5038,
      "max": [
        0.9995996952056885,
        0.9997331500053406,
        0.9997026324272156,
        1.0
      ],
      "min": [
        -0.9984714388847351,
        -0.9996640086174011,
        -0.9992263913154602,
        -1.0
      ],
      "type": "VEC4"
    },
    {
      "bufferView": 1,
      "byteOffset": 267264,
      "componentType": 5126,
      "count": 5038,
      "max": [
        0.9816551804542542,
        0.992216169834137
      ],
      "min": [
        0.0009765625,
        0.0010283117881044745
      ],
      "type": "VEC2"
    },
    {
      "bufferView": 1,
      "byteOffset": 307568,
      "componentType": 5126,
      "count": 5038,
      "max": [
        0.9816551804542542,
        0.992216169834137
      ],
      "min": [
        0.0009765625,
        0.0010283117881044745
      ],
      "type": "VEC2"
    },
    {
      "bufferView": 1,
      "byteOffset": 347872,
      "componentType": 5126,
      "count": 5038,
      "max": [
        0.9816551804542542,
        0.992216169834137
      ],
      "min": [
        0.0009765625,
        0.0010283117881044745
      ],
      "type": "VEC2"
    },
    {
      "bufferView": 1,
      "byteOffset": 388176,
      "componentType": 5126,
      "count": 5038,
      "max": [
        0.9816551804542542,
        0.992216169834137
      ],
      "min": [
        0.0009765625,
        0.0010283117881044745
      ],
      "type": "VEC2"
    },
    {
      "bufferView": 0,
      "byteOffset": 154680,
      "componentType": 5125,
      "count": 26280,
      "type": "SCALAR"
    },
    {
      "bufferView": 2,
      "byteOffset": 400920,
      "componentType": 5126,
      "count": 1139,
      "max": [
        2.9685919284820557,
        13.358205795288086,
        3.3347346782684326
      ],
      "min": [
        -2.0957956314086914,
        8.526506423950195,
        -1.9511979818344116
      ],
      "type": "VEC3"
    },
    {
      "bufferView": 2,
      "byteOffset": 414588,
      "componentType": 5126,
      "count": 1139,
      "max": [
        0.9982514977455139,
        0.9936047196388245,
        0.9998059868812561
      ],
      "min": [
        -0.9939594268798828,
        -0.9900074005126953,
        -0.9901883602142334
      ],
      "type": "VEC3"
    },
    {
      "bufferView": 3,
      "byteOffset": 196560,
      "componentType": 5126,
      "count": 1139,
      "max": [
        0.9970723986625671,
        0.9966608285903931,
        0.999549925327301,
        1.0
      ],
      "min": [
        -0.9910524487495422,
        -0.993367612361908,
        -0.986808717250824,
        1.0
      ],
      "type": "VEC4"
    },
    {
      "bufferView": 1,
      "byteOffset": 428480,
      "componentType": 5126,
      "count": 1139,
      "max": [
        0.8988418579101563,
        0.8557934165000916
      ],
      "min": [
        0.0009765625,
        0.4094955623149872
      ],
      "type": "VEC2"
    },
    {
      "bufferView": 1,
      "byteOffset": 437592,
      "componentType": 5126,
      "count": 1139,
      "max": [
        0.8988418579101563,
        0.8557934165000916
      ],
      "min": [
        0.0009765625,
        0.4094955623149872
      ],
      "type": "VEC2"
    },
    {
      "bufferView": 1,
      "byteOffset": 446704,
      "componentType": 5126,
      "count": 1139,
      "max": [
        0.8988418579101563,
        0.8557934165000916
      ],
      "min": [
        0.0009765625,
        0.4094955623149872
      ],
      "type": "VEC2"
    },
    {
      "bufferView": 1,
      "byteOffset": 455816,
      "componentType": 5126,
      "count": 1139,
      "max": [
        0.8988418579101563,
        0.8557934165000916
      ],
      "min": [
        0.0009765625,
        0.4094955623149872
      ],
      "type": "VEC2"
    },
    {
      "bufferView": 0,
      "byteOffset": 259800,
      "componentType": 5125,
      "count": 5940,
      "type": "SCALAR"
    },
    {
      "bufferView": 2,
      "byteOffset": 428256,
      "componentType": 5126,
      "count": 852,
      "max": [
        2.899078130722046,
        9.120038986206055,
        3.429593801498413
      ],
      "min": [
        -2.2650012969970703,
        1.2920703887939453,
        -3.2266037464141846
      ],
      "type": "VEC3"
    },
    {
      "bufferView": 2,
      "byteOffset": 438480,
      "componentType": 5126,
      "count": 852,
      "max": [
        0.999951183795929,
        0.9920041561126709,
        0.9948359727859497
      ],
      "min": [
        -0.9999895095825195,
        -0.9971095323562622,
        -0.9999442100524902
      ],
      "type": "VEC3"
    },
    {
      "bufferView": 3,
      "byteOffset": 214784,
      "componentType": 5126,
      "count": 852,
      "max": [
        0.9967758059501648,
        0.9436181783676147,
        0.997269868850708,
        1.0
      ],
      "min": [
        -0.9987022280693054,
        -0.9375566840171814,
        -0.9966078400611877,
        1.0
      ],
      "type": "VEC4"
    },
    {
      "bufferView": 1,
      "byteOffset": 464928,
      "componentType": 5126,
      "count": 852,
      "max": [
        0.6274307370185852,
        0.8582032918930054
      ],
      "min": [
        0.0009765625,
        0.000991574372164905
      ],
      "type": "VEC2"
    },
    {
      "bufferView": 1,
      "byteOffset": 471744,
      "componentType": 5126,
      "count": 852,
      "max": [
        0.6274307370185852,
        0.8582032918930054
      ],
      "min": [
        0.0009765625,
        0.000991574372164905
      ],
      "type": "VEC2"
    },
    {
      "bufferView": 1,
      "byteOffset": 478560,
      "componentType": 5126,
      "count": 852,
      "max": [
        0.6274307370185852,
        0.8582032918930054
      ],
      "min": [
        0.0009765625,
        0.000991574372164905
      ],
      "type": "VEC2"
    },
    {
      "bufferView": 1,
      "byteOffset": 485376,
      "componentType": 5126,
      "count": 852,
      "max": [
        0.6274307370185852,
        0.8582032918930054
      ],
      "min": [
        0.0009765625,
        0.000991574372164905
      ],
      "type": "VEC2"
    },
    {
      "bufferView": 0,
      "byteOffset": 283560,
      "componentType": 5125,
      "count": 4458,
      "type": "SCALAR"
    },
    {
      "bufferView": 2,
      "byteOffset": 448704,
      "componentType": 5126,
      "count": 136,
      "max": [
        2.254143714904785,
        93.71805572509766,
        6.754300117492676
      ],
      "min": [
        0.41734617948532104,
        92.43424224853516,
        3.3720738887786865
      ],
      "type": "VEC3"
    },
    {
      "bufferView": 2,
      "byteOffset": 450336,
      "componentType": 5126,
      "count": 136,
      "max": [
        0.9627150893211365,
        0.9949299097061157,
        0.9167612791061401
      ],
      "min": [
        -0.9669306874275208,
        -0.9920545816421509,
        -0.8649289608001709
      ],
      "type": "VEC3"
    },
    {
      "bufferView": 3,
      "byteOffset": 228416,
      "componentType": 5126,
      "count": 136,
      "max": [
        0.9996336102485657,
        0.9837861061096191,
        0.8518216013908386,
        1.0
      ],
      "min": [
        -0.9620252847671509,
        -0.9215929508209229,
        -0.9176353216171265,
        1.0
      ],
      "type": "VEC4"
    },
    {
      "bufferView": 1,
      "byteOffset": 492192,
      "componentType": 5126,
      "count": 136,
      "max": [
        0.9990234375,
        0.7397190928459167
      ],
      "min": [
        0.016825977712869644,
        0.0009765625
      ],
      "type": "VEC2"
    },
    {
      "bufferView": 1,
      "byteOffset": 493280,
      "componentType": 5126,
      "count": 136,
      "max": [
        0.9990234375,
        0.7397190928459167
      ],
      "min": [
        0.016825977712869644,
        0.0009765625
      ],
      "type": "VEC2"
    },
    {
      "bufferView": 1,
      "byteOffset": 494368,
      "componentType": 5126,
      "count": 136,
      "max": [
        0.9990234375,
        0.7397190928459167
      ],
      "min": [
        0.016825977712869644,
        0.0009765625
      ],
      "type": "VEC2"
    },
    {
      "bufferView": 1,
      "byteOffset": 495456,
      "componentType": 5126,
      "count": 136,
      "max": [
        0.9990234375,
        0.7397190928459167
      ],
      "min": [
        0.016825977712869644,
        0.0009765625
      ],
      "type": "VEC2"
    },
    {
      "bufferView": 0,
      "byteOffset": 301392,
      "componentType": 5125,
      "count": 480,
      "type": "SCALAR"
    },
    {
      "bufferView": 2,
      "byteOffset": 451968,
      "componentType": 5126,
      "count": 280,
      "max": [
        0.05154601112008095,
        6.967156887054443,
        1.34661865234375
      ],
      "min": [
        -1.438791275024414,
        5.172962665557861,
        -0.3187926113605499
      ],
      "type": "VEC3"
    },
    {
      "bufferView": 2,
      "byteOffset": 455328,
      "componentType": 5126,
      "count": 280,
      "max": [
        0.7581285834312439,
        0.727190375328064,
        0.805410623550415
      ],
      "min": [
        -0.8766162395477295,
        -0.5644381046295166,
        -0.6631311774253845
      ],
      "type": "VEC3"
    },
    {
      "bufferView": 3,
      "byteOffset": 230592,
      "componentType": 5126,
      "count": 280,
      "max": [
        0.9138375520706177,
        0.9587244987487793,
        0.923573911190033,
        1.0
      ],
      "min": [
        -0.8072317838668823,
        -0.9224288463592529,
        -0.8769292235374451,
        -1.0
      ],
      "type": "VEC4"
    },
    {
      "bufferView": 1,
      "byteOffset": 496544,
      "componentType": 5126,
      "count": 280,
      "max": [
        0.5115789771080017,
        0.9990230202674866
      ],
      "min": [
        0.0009769999887794256,
        0.0009769999887794256
      ],
      "type": "VEC2"
    },
    {
      "bufferView": 1,
      "byteOffset": 498784,
      "componentType": 5126,
      "count": 280,
      "max": [
        0.5115789771080017,
        0.9990230202674866
      ],
      "min": [
        0.0009769999887794256,
        0.0009769999887794256
      ],
      "type": "VEC2"
    },
    {
      "bufferView": 1,
      "byteOffset": 501024,
      "componentType": 5126,
      "count": 280,
      "max": [
        0.5115789771080017,
        0.9990230202674866
      ],
      "min": [
        0.0009769999887794256,
        0.0009769999887794256
      ],
      "type": "VEC2"
    },
    {
      "bufferView": 1,
      "byteOffset": 503264,
      "componentType": 5126,
      "count": 280,
      "max": [
        0.5115789771080017,
        0.9990230202674866
      ],
      "min": [
        0.0009769999887794256,
        0.0009769999887794256
      ],
      "type": "VEC2"
    },
    {
      "bufferView": 0,
      "byteOffset": 303312,
      "componentType": 5125,
      "count": 720,
      "type": "SCALAR"
    },
    {
      "bufferView": 2,
      "byteOffset": 458688,
      "componentType": 5126,
      "count": 92,
      "max": [
        0.49782222509384155,
        13.115699768066406,
        1.3490556478500366
      ],
      "min": [
        0.00921235978603363,
        12.867173194885254,
        1.0644248723983765
      ],
      "type": "VEC3"
    },
    {
      "bufferView": 2,
      "byteOffset": 459792,
      "componentType": 5126,
      "count": 92,
      "max": [
        0.9128195643424988,
        0.8803911805152893,
        0.9415299296379089
      ],
      "min": [
        -0.8145483136177063,
        -0.966177225112915,
        -0.46134039759635925
      ],
      "type": "VEC3"
    },
    {
      "bufferView": 3,
      "byteOffset": 235072,
      "componentType": 5126,
      "count": 92,
      "max": [
        0.46041202545166016,
        0.9832952618598938,
        0.969734787940979,
        1.0
      ],
      "min": [
        -0.7075250744819641,
        -0.4711596369743347,
        -0.8839150071144104,
        1.0
      ],
      "type": "VEC4"
    },
    {
      "bufferView": 1,
      "byteOffset": 505504,
      "componentType": 5126,
      "count": 92,
      "max": [
        0.995629608631134,
        0.09161284565925598
      ],
      "min": [
        0.0009765625,
        0.0010462530190125108
      ],
      "type": "VEC2"
    },
    {
      "bufferView": 1,
      "byteOffset": 506240,
      "componentType": 5126,
      "count": 92,
      "max": [
        0.995629608631134,
        0.09161284565925598
      ],
      "min": [
        0.0009765625,
        0.0010462530190125108
      ],
      "type": "VEC2"
    },
    {
      "bufferView": 1,
      "byteOffset": 506976,
      "componentType": 5126,
      "count": 92,
      "max": [
        0.995629608631134,
        0.09161284565925598
      ],
      "min": [
        0.0009765625,
        0.0010462530190125108
      ],
      "type": "VEC2"
    },
    {
      "bufferView": 1,
      "byteOffset": 507712,
      "componentType": 5126,
      "count": 92,
      "max": [
        0.995629608631134,
        0.09161284565925598
      ],
      "min": [
        0.0009765625,
        0.0010462530190125108
      ],
      "type": "VEC2"
    },
    {
      "bufferView": 0,
      "byteOffset": 306192,
      "componentType": 5125,
      "count": 216,
      "type": "SCALAR"
    },
    {
      "bufferView": 2,
      "byteOffset": 460896,
      "componentType": 5126,
      "count": 428,
      "max": [
        3.0438828468322754,
        3.3556623458862305,
        3.0214695930480957
      ],
      "min": [
        -1.7700419425964355,
        1.2049102783203125,
        -3.3674263954162598
      ],
      "type": "VEC3"
    },
    {
      "bufferView": 2,
      "byteOffset": 466032,
      "componentType": 5126,
      "count": 428,
      "max": [
        0.9911022186279297,
        0.9995437264442444,
        0.9978049397468567
      ],
      "min": [
        -0.9961047768592834,
        -0.9999333620071411,
        -0.999538779258728
      ],
      "type": "VEC3"
    },
    {
      "bufferView": 3,
      "byteOffset": 236544,
      "componentType": 5126,
      "count": 428,
      "max": [
        0.9999858736991882,
        0.9990201592445374,
        0.9919189810752869,
        1.0
      ],
      "min": [
        -0.9995522499084473,
        -0.9966562390327454,
        -0.9996617436408997,
        1.0
      ],
      "type": "VEC4"
    },
    {
      "bufferView": 1,
      "byteOffset": 508448,
      "componentType": 5126,
      "count": 428,
      "max": [
        0.979198157787323,
        0.9779179096221924
      ],
      "min": [
        0.27705812454223633,
        0.0010086297988891602
      ],
      "type": "VEC2"
    },
    {
      "bufferView": 1,
      "byteOffset": 511872,
      "componentType": 5126,
      "count": 428,
      "max": [
        0.979198157787323,
        0.9779179096221924
      ],
      "min": [
        0.27705812454223633,
        0.0010086297988891602
      ],
      "type": "VEC2"
    },
    {
      "bufferView": 1,
      "byteOffset": 515296,
      "componentType": 5126,
      "count": 428,
      "max": [
        0.979198157787323,
        0.9779179096221924
      ],
      "min": [
        0.27705812454223633,
        0.0010086297988891602
      ],
      "type": "VEC2"
    },
    {
      "bufferView": 1,
      "byteOffset": 518720,
      "componentType": 5126,
      "count": 428,
      "max": [
        0.979198157787323,
        0.9779179096221924
      ],
      "min": [
        0.27705812454223633,
        0.0010086297988891602
      ],
      "type": "VEC2"
    },
    {
      "bufferView": 0,
      "byteOffset": 307056,
      "componentType": 5125,
      "count": 2016,
      "type": "SCALAR"
    }
  ],
  "asset": {
    "extras": {
      "author": "Joence Simpson (https://sketchfab.com/joencesimpson)",
      "license": "CC-BY-4.0 (http://creativecommons.org/licenses/by/4.0/)",
      "source": "https://sketchfab.com/3d-models/captain-america-16354afc008a408db2858b037958ca83",
      "title": "Captain America"
    },
    "generator": "Sketchfab-15.83.0",
    "version": "2.0"
  },
  "bufferViews": [
    {
      "buffer": 0,
      "byteLength": 315120,
      "name": "floatBufferViews",
      "target": 34963
    },
    {
      "buffer": 0,
      "byteLength": 522144,
      "byteOffset": 315120,
      "byteStride": 8,
      "name": "floatBufferViews",
      "target": 34962
    },
    {
      "buffer": 0,
      "byteLength": 471168,
      "byteOffset": 837264,
      "byteStride": 12,
      "name": "floatBufferViews",
      "target": 34962
    },
    {
      "buffer": 0,
      "byteLength": 243392,
      "byteOffset": 1308432,
      "byteStride": 16,
      "name": "floatBufferViews",
      "target": 34962
    }
  ],
  "buffers": [
    {
      "byteLength": 1551824,
      "uri": "scene.bin"
    }
  ],
  "images": [
    {
      "uri": "textures/Top1_baseColor.jpeg"
    },
    {
      "uri": "textures/Top1_metallicRoughness.png"
    },
    {
      "uri": "textures/Top1_normal.jpeg"
    },
    {
      "uri": "textures/Eyes_baseColor.jpeg"
    },
    {
      "uri": "textures/Bottom1_baseColor.jpeg"
    },
    {
      "uri": "textures/Bottom1_metallicRoughness.png"
    },
    {
      "uri": "textures/Bottom1_normal.jpeg"
    },
    {
      "uri": "textures/Top1_1_baseColor.jpeg"
    },
    {
      "uri": "textures/Top1_1_metallicRoughness.png"
    },
    {
      "uri": "textures/Top1_1_normal.jpeg"
    },
    {
      "uri": "textures/Shield_baseColor.jpeg"
    },
    {
      "uri": "textures/Shield_metallicRoughness.png"
    },
    {
      "uri": "textures/Shield_normal.jpeg"
    }
  ],
  "materials": [
    {
      "name": "Top1",
      "normalTexture": {
        "index": 2
      },
      "pbrMetallicRoughness": {
        "baseColorFactor": [
          0.5,
          0.5,
          0.5,
          1.0
        ],
        "baseColorTexture": {
          "index": 0
        },
        "metallicFactor": 0.0,
        "metallicRoughnessTexture": {
          "index": 1
        }
      }
    },
    {
      "name": "Eyes",
      "pbrMetallicRoughness": {
        "baseColorFactor": [
          0.5,
          0.5,
          0.5,
          1.0
        ],
        "baseColorTexture": {
          "index": 3
        },
        "metallicFactor": 0.0,
        "roughnessFactor": 0.0
      }
    },
    {
      "name": "Bottom1",
      "normalTexture": {
        "index": 6
      },
      "pbrMetallicRoughness": {
        "baseColorFactor": [
          0.5,
          0.5,
          0.5,
          1.0
        ],
        "baseColorTexture": {
          "index": 4
        },
        "metallicFactor": 0.0,
        "metallicRoughnessTexture": {
          "index": 5
        }
      }
    },
    {
      "name": "Top1_1",
      "normalTexture": {
        "index": 9
      },
      "pbrMetallicRoughness": {
        "baseColorFactor": [
          0.5,
          0.5,
          0.5,
          1.0
        ],
        "baseColorTexture": {
          "index": 7
        },
        "metallicFactor": 0.0,
        "metallicRoughnessTexture": {
          "index": 8
        }
      }
    },
    {
      "name": "Shield",
      "normalTexture": {
        "index": 12
      },
      "pbrMetallicRoughness": {
        "baseColorTexture": {
          "index": 10
        },
        "metallicRoughnessTexture": {
          "index": 11
        },
        "roughnessFactor": 0.410891
      }
    }
  ],
  "meshes": [
    {
      "name": "Object_0",
      "primitives": [
        {
          "attributes": {
            "NORMAL": 1,
            "POSITION": 0,
            "TANGENT": 2,
            "TEXCOORD_0": 3,
            "TEXCOORD_1": 4,
            "TEXCOORD_2": 5,
            "TEXCOORD_3": 6
          },
          "indices": 7,
          "material": 0,
          "mode": 4
        }
      ]
    },
    {
      "name": "Object_1",
      "primitives": [
        {
          "attributes": {
            "NORMAL": 9,
            "POSITION": 8,
            "TANGENT": 10,
            "TEXCOORD_0": 11,
            "TEXCOORD_1": 12,
            "TEXCOORD_2": 13,
            "TEXCOORD_3": 14
          },
          "indices": 15,
          "material": 0,
          "mode": 4
        }
      ]
    },
    {
      "name": "Object_2",
      "primitives": [
        {
          "attributes": {
            "NORMAL": 17,
            "POSITION": 16,
            "TEXCOORD_0": 18
          },
          "indices": 19,
          "material": 1,
          "mode": 4
        }
      ]
    },
    {
      "name": "Object_3",
      "primitives": [
        {
          "attributes": {
            "NORMAL": 21,
            "POSITION": 20,
            "TANGENT": 22,
            "TEXCOORD_0": 23,
            "TEXCOORD_1": 24,
            "TEXCOORD_2": 25,
            "TEXCOORD_3": 26
          },
          "indices": 27,
          "material": 2,
          "mode": 4
        }
      ]
    },
    {
      "name": "Object_4",
      "primitives": [
        {
          "attributes": {
            "NORMAL": 29,
            "POSITION": 28,
            "TANGENT": 30,
            "TEXCOORD_0": 31,
            "TEXCOORD_1": 32,
            "TEXCOORD_2": 33,
            "TEXCOORD_3": 34
          },
          "indices": 35,
          "material": 2,
          "mode": 4
        }
      ]
    },
    {
      "name": "Object_5",
      "primitives": [
        {
          "attributes": {
            "NORMAL": 37,
            "POSITION": 36,
            "TANGENT": 38,
            "TEXCOORD_0": 39,
            "TEXCOORD_1": 40,
            "TEXCOORD_2": 41,
            "TEXCOORD_3": 42
          },
          "indices": 43,
          "material": 2,
          "mode": 4
        }
      ]
    },
    {
      "name": "Object_6",
      "primitives": [
        {
          "attributes": {
            "NORMAL": 45,
            "POSITION": 44,
            "TANGENT": 46,
            "TEXCOORD_0": 47,
            "TEXCOORD_1": 48,
            "TEXCOORD_2": 49,
            "TEXCOORD_3": 50
          },
          "indices": 51,
          "material": 0,
          "mode": 4
        }
      ]
    },
    {
      "name": "Object_7",
      "primitives": [
        {
          "attributes": {
            "NORMAL": 53,
            "POSITION": 52,
            "TANGENT": 54,
            "TEXCOORD_0": 55,
            "TEXCOORD_1": 56,
            "TEXCOORD_2": 57,
            "TEXCOORD_3": 58
          },
          "indices": 59,
          "material": 0,
          "mode": 4
        }
      ]
    },
    {
      "name": "Object_8",
      "primitives": [
        {
          "attributes": {
            "NORMAL": 61,
            "POSITION": 60,
            "TANGENT": 62,
            "TEXCOORD_0": 63,
            "TEXCOORD_1": 64,
            "TEXCOORD_2": 65,
            "TEXCOORD_3": 66
          },
          "indices": 67,
          "material": 2,
          "mode": 4
        }
      ]
    },
    {
      "name": "Object_9",
      "primitives": [
        {
          "attributes": {
            "NORMAL": 69,
            "POSITION": 68,
            "TANGENT": 70,
            "TEXCOORD_0": 71,
            "TEXCOORD_1": 72,
            "TEXCOORD_2": 73,
            "TEXCOORD_3": 74
          },
          "indices": 75,
          "material": 2,
          "mode": 4
        }
      ]
    },
    {
      "name": "Object_10",
      "primitives": [
        {
          "attributes": {
            "NORMAL": 77,
            "POSITION": 76,
            "TANGENT": 78,
            "TEXCOORD_0": 79,
            "TEXCOORD_1": 80,
            "TEXCOORD_2": 81,
            "TEXCOORD_3": 82
          },
          "indices": 83,
          "material": 3,
          "mode": 4
        }
      ]
    },
    {
      "name": "Object_11",
      "primitives": [
        {
          "attributes": {
            "NORMAL": 85,
            "POSITION": 84,
            "TANGENT": 86,
            "TEXCOORD_0": 87,
            "TEXCOORD_1": 88,
            "TEXCOORD_2": 89,
            "TEXCOORD_3": 90
          },
          "indices": 91,
          "material": 2,
          "mode": 4
        }
      ]
    },
    {
      "name": "Object_12",
      "primitives": [
        {
          "attributes": {
            "NORMAL": 93,
            "POSITION": 92,
            "TANGENT": 94,
            "TEXCOORD_0": 95,
            "TEXCOORD_1": 96,
            "TEXCOORD_2": 97,
            "TEXCOORD_3": 98
          },
          "indices": 99,
          "material": 2,
          "mode": 4
        }
      ]
    },
    {
      "name": "Object_13",
      "primitives": [
        {
          "attributes": {
            "NORMAL": 101,
            "POSITION": 100,
            "TANGENT": 102,
            "TEXCOORD_0": 103,
            "TEXCOORD_1": 104,
            "TEXCOORD_2": 105,
            "TEXCOORD_3": 106
          },
          "indices": 107,
          "material": 0,
          "mode": 4
        }
      ]
    },
    {
      "name": "Object_14",
      "primitives": [
        {
          "attributes": {
            "NORMAL": 109,
            "POSITION": 108,
            "TANGENT": 110,
            "TEXCOORD_0": 111,
            "TEXCOORD_1": 112,
            "TEXCOORD_2": 113,
            "TEXCOORD_3": 114
          },
          "indices": 115,
          "material": 4,
          "mode": 4
        }
      ]
    },
    {
      "name": "Object_15",
      "primitives": [
        {
          "attributes": {
            "NORMAL": 117,
            "POSITION": 116,
            "TANGENT": 118,
            "TEXCOORD_0": 119,
            "TEXCOORD_1": 120,
            "TEXCOORD_2": 121,
            "TEXCOORD_3": 122
          },
          "indices": 123,
          "material": 0,
          "mode": 4
        }
      ]
    },
    {
      "name": "Object_16",
      "primitives": [
        {
          "attributes": {
            "NORMAL": 125,
            "POSITION": 124,
            "TANGENT": 126,
            "TEXCOORD_0": 127,
            "TEXCOORD_1": 128,
            "TEXCOORD_2": 129,
            "TEXCOORD_3": 130
          },
          "indices": 131,
          "material": 2,
          "mode": 4
        }
      ]
    }
  ],
  "nodes": [
    {
      "children": [
        1
      ],
      "matrix": [
        1.0,
        0.0,
        0.0,
        0.0,
        0.0,
        2.220446049250313e-16,
        -1.0,
        0.0,
        0.0,
        1.0,
        2.220446049250313e-16,
        0.0,
        0.0,
        0.0,
        0.0,
        1.0
      ],
      "name": "Sketchfab_model"
    },
    {
      "children": [
        2
      ],
      "name": "root"
    },
    {
      "children": [
        3,
        5,
        7,
        9,
        11,
        13,
        15,
        17,
        19,
        21,
        23,
        25,
        27,
        29,
        31,
        33,
        35
      ],
      "matrix": [
        1.0,
        0.0,
        0.0,
        0.0,
        0.0,
        2.220446049250313e-16,
        1.0,
        0.0,
        0.0,
        -1.0,
        2.220446049250313e-16,
        0.0,
        0.0,
        0.0,
        0.0,
        1.0
      ],
      "name": "GLTF_SceneRootNode"
    },
    {
      "children": [
        4
      ],
      "matrix": [
        1.0,
        0.0,
        0.0,
        0.0,
        0.0,
        1.0,
        1.6292068494294654e-07,
        0.0,
        0.0,
        -1.6292068494294654e-07,
        1.0,
        0.0,
        0.0,
        0.0,
        0.0,
        1.0
      ],
      "name": "Brow_low_0"
    },
    {
      "mesh": 0,
      "name": "Object_4"
    },
    {
      "children": [
        6
      ],
      "matrix": [
        1.0,
        0.0,
        0.0,
        0.0,
        0.0,
        1.0,
        1.6292068494294654e-07,
        0.0,
        0.0,
        -1.6292068494294654e-07,
        1.0,
        0.0,
        0.0,
        0.0,
        0.0,
        1.0
      ],
      "name": "Helmet_strap_low_1"
    },
    {
      "mesh": 1,
      "name": "Object_6"
    },
    {
      "children": [
        8
      ],
      "matrix": [
        0.8050703406333923,
        0.0,
        0.0,
        0.0,
        0.0,
        0.8050703406333923,
        1.3116260788592626e-07,
        0.0,
        0.0,
        -1.3116260788592626e-07,
        0.8050703406333923,
        0.0,
        0.0,
        -13.640491485595703,
        0.07301242649555206,
        1.0
      ],
      "name": "Eyes_low_2"
    },
    {
      "mesh": 2,
      "name": "Object_8"
    },
    {
      "children": [
        10
      ],
      "matrix": [
        1.0,
        -8.881783138210068e-16,
        -1.5543123403543376e-15,
        0.0,
        8.881785255792436e-16,
        1.0,
        1.6292068494294654e-07,
        0.0,
        1.5543120227169823e-15,
        -1.6292067073209182e-07,
        0.9999998807907104,
        0.0,
        4.172325134277344e-07,
        -2.980232949312267e-08,
        4.470347292340193e-08,
        1.0
      ],
      "name": "Gloves_low_3"
    },
    {
      "mesh": 3,
      "name": "Object_10"
    },
    {
      "children": [
        12
      ],
      "matrix": [
        1.0,
        8.187894806610529e-16,
        6.66988774231459e-23,
        0.0,
        -8.187894806610529e-16,
        1.0,
        1.6292069915380125e-07,
        0.0,
        6.66988774231459e-23,
        -1.6292069915380125e-07,
        1.0,
        0.0,
        7.82310962677002e-08,
        -4.5285556637963964e-08,
        -2.2351748896198842e-08,
        1.0
      ],
      "name": "Boots2_low_4"
    },
    {
      "mesh": 4,
      "name": "Object_12"
    },
    {
      "children": [
        14
      ],
      "matrix": [
        1.0,
        -7.047314121155779e-17,
        -5.740766815942649e-24,
        0.0,
        7.047314121155779e-17,
        1.0,
        1.6292069915380125e-07,
        0.0,
        -5.740766815942649e-24,
        -1.6292069915380125e-07,
        1.0,
        0.0,
        8.569268317160095e-08,
        1.3690440425762063e-07,
        -4.412138565612622e-08,
        1.0
      ],
      "name": "Buckles_low_5"
    },
    {
      "mesh": 5,
      "name": "Object_14"
    },
    {
      "children": [
        16
      ],
      "matrix": [
        1.0,
        0.0,
        0.0,
        0.0,
        0.0,
        1.0,
        1.6292068494294654e-07,
        0.0,
        0.0,
        -1.6292068494294654e-07,
        1.0,
        0.0,
        0.0,
        0.0,
        0.0,
        1.0
      ],
      "name": "Helmet_low_6"
    },
    {
      "mesh": 6,
      "name": "Object_16"
    },
    {
      "children": [
        18
      ],
      "matrix": [
        1.0,
        0.0,
        0.0,
        0.0,
        0.0,
        1.0,
        1.6292068494294654e-07,
        0.0,
        0.0,
        -1.6292068494294654e-07,
        1.0,
        0.0,
        0.0,
        0.0,
        0.0,
        1.0
      ],
      "name": "A_low_7"
    },
    {
      "mesh": 7,
      "name": "Object_18"
    },
    {
      "children": [
        20
      ],
      "matrix": [
        1.0,
        8.187894806610529e-16,
        6.66988774231459e-23,
        0.0,
        -8.187894806610529e-16,
        1.0,
        1.6292069915380125e-07,
        0.0,
        6.66988774231459e-23,
        -1.6292069915380125e-07,
        1.0,
        0.0,
        7.82310962677002e-08,
        -4.5285556637963964e-08,
        -2.2351748896198842e-08,
        1.0
      ],
      "name": "Boots1_low_8"
    },
    {
      "mesh": 8,
      "name": "Object_20"
    },
    {
      "children": [
        22
      ],
      "matrix": [
        1.0,
        6.787104938014768e-17,
        5.551115784870273e-17,
        0.0,
        -6.787105599759258e-17,
        1.0,
        1.6292068494294654e-07,
        0.0,
        -5.5511141305090476e-17,
        -1.6292067073209182e-07,
        0.9999998807907104,
        0.0,
        -9.477353346554196e-10,
        3.119930624961853e-07,
        2.1031205221788696e-08,
        1.0
      ],
      "name": "Belts_low_9"
    },
    {
      "mesh": 9,
      "name": "Object_22"
    },
    {
      "children": [
        24
      ],
      "matrix": [
        1.0,
        8.187894806610529e-16,
        6.66988774231459e-23,
        0.0,
        -8.187894806610529e-16,
        1.0,
        1.6292069915380125e-07,
        0.0,
        6.66988774231459e-23,
        -1.6292069915380125e-07,
        1.0,
        0.0,
        7.82310962677002e-08,
        -4.5285556637963964e-08,
        -2.2351748896198842e-08,
        1.0
      ],
      "name": "Body_low_10"
    },
    {
      "mesh": 10,
      "name": "Object_24"
    },
    {
      "children": [
        26
      ],
      "matrix": [
        1.0,
        6.787104938014768e-17,
        5.551115784870273e-17,
        0.0,
        -6.787105599759258e-17,
        1.0,
        1.6292068494294654e-07,
        0.0,
        -5.5511141305090476e-17,
        -1.6292067073209182e-07,
        0.9999998807907104,
        0.0,
        -9.477353346554196e-10,
        3.119930624961853e-07,
        2.1031205221788696e-08,
        1.0
      ],
      "name": "Top_low_11"
    },
    {
      "mesh": 11,
      "name": "Object_26"
    },
    {
      "children": [
        28
      ],
      "matrix": [
        1.0,
        8.187894806610529e-16,
        6.66988774231459e-23,
        0.0,
        -8.187894806610529e-16,
        1.0,
        1.6292069915380125e-07,
        0.0,
        6.66988774231459e-23,
        -1.6292069915380125e-07,
        1.0,
        0.0,
        7.82310962677002e-08,
        -4.5285556637963964e-08,
        -2.2351748896198842e-08,
        1.0
      ],
      "name": "Pant_low_12"
    },
    {
      "mesh": 12,
      "name": "Object_28"
    },
    {
      "children": [
        30
      ],
      "matrix": [
        0.15087176859378815,
        0.0,
        0.0,
        0.0,
        0.0,
        0.15087176859378815,
        2.4580131707807595e-08,
        0.0,
        0.0,
        -2.4580131707807595e-08,
        0.15087176859378815,
        0.0,
        0.0588468499481678,
        -1.0994142293930054,
        0.28863775730133057,
        1.0
      ],
      "name": "Tongue_low_13"
    },
    {
      "mesh": 13,
      "name": "Object_30"
    },
    {
      "children": [
        32
      ],
      "matrix": [
        -2.4010062217712402,
        4.1950652729383364e-08,
        -2.09902637493542e-07,
        0.0,
        2.4873855863916106e-08,
        2.393174171447754,
        0.19377048313617706,
        0.0,
        2.1260352411900385e-07,
        0.19377048313617706,
        -2.393174171447754,
        0.0,
        0.010597330518066883,
        -3.276709794998169,
        -0.9787892699241638,
        1.0
      ],
      "name": "Shield_low_14"
    },
    {
      "mesh": 14,
      "name": "Object_32"
    },
    {
      "children": [
        34
      ],
      "matrix": [
        1.0,
        0.0,
        0.0,
        0.0,
        0.0,
        1.0,
        1.6292068494294654e-07,
        0.0,
        0.0,
        -1.6292068494294654e-07,
        1.0,
        0.0,
        0.0,
        0.0,
        0.0,
        1.0
      ],
      "name": "Teeth_low_15"
    },
    {
      "mesh": 15,
      "name": "Object_34"
    },
    {
      "children": [
        36
      ],
      "matrix": [
        1.0,
        8.187894806610529e-16,
        6.66988774231459e-23,
        0.0,
        -8.187894806610529e-16,
        1.0,
        1.6292069915380125e-07,
        0.0,
        6.66988774231459e-23,
        -1.6292069915380125e-07,
        1.0,
        0.0,
        7.82310962677002e-08,
        -4.5285556637963964e-08,
        -2.2351748896198842e-08,
        1.0
      ],
      "name": "Boots3_low_16"
    },
    {
      "mesh": 16,
      "name": "Object_36"
    }
  ],
  "samplers": [
    {
      "magFilter": 9729,
      "minFilter": 9987,
      "wrapS": 10497,
      "wrapT": 10497
    }
  ],
  "scene": 0,
  "scenes": [
    {
      "name": "Sketchfab_Scene",
      "nodes": [
        0
      ]
    }
  ],
  "textures": [
    {
      "sampler": 0,
      "source": 0
    },
    {
      "sampler": 0,
      "source": 1
    },
    {
      "sampler": 0,
      "source": 2
    },
    {
      "sampler": 0,
      "source": 3
    },
    {
      "sampler": 0,
      "source": 4
    },
    {
      "sampler": 0,
      "source": 5
    },
    {
      "sampler": 0,
      "source": 6
    },
    {
      "sampler": 0,
      "source": 7
    },
    {
      "sampler": 0,
      "source": 8
    },
    {
      "sampler": 0,
      "source": 9
    },
    {
      "sampler": 0,
      "source": 10
    },
    {
      "sampler": 0,
      "source": 11
    },
    {
      "sampler": 0,
      "source": 12
    }
  ]
}
